<?xml version="1.0" encoding="UTF-8" standalone="no"?>
<!DOCTYPE svg PUBLIC "-//W3C//DTD SVG 1.1//EN" "http://www.w3.org/Graphics/SVG/1.1/DTD/svg11.dtd">
<svg xmlns="http://www.w3.org/2000/svg" version="1.1" viewBox="0.00 0.00 2076.00 262.00">
<path fill="#ffffff" d="
  M 1947.53 0.00
  L 1997.89 0.00
  L 1997.93 12.35
  Q 1997.94 13.00 1997.29 13.00
  L 1980.50 13.00
  Q 1980.00 13.00 1980.00 13.50
  L 1980.00 61.25
  A 0.75 0.75 0.0 0 1 1979.25 62.00
  L 1964.75 62.00
  Q 1964.00 62.00 1964.00 61.25
  L 1964.00 13.75
  A 0.75 0.75 0.0 0 0 1963.25 13.00
  L 1947.69 13.00
  Q 1947.18 13.00 1947.13 12.49
  Q 1946.55 6.05 1947.53 0.00
  Z"
/>
<path fill="#ffffff" d="
  M 2004.13 0.00
  L 2025.63 0.00
  L 2039.84 37.72
  A 0.52 0.52 0.0 0 0 2040.81 37.72
  L 2055.16 0.00
  L 2076.00 0.00
  L 2076.00 61.86
  L 2061.69 61.95
  A 0.69 0.68 0.0 0 1 2061.00 61.27
  L 2061.00 22.57
  A 0.42 0.42 0.0 0 0 2060.19 22.43
  L 2046.08 61.31
  Q 2045.83 62.00 2045.09 62.00
  L 2035.25 62.00
  Q 2034.62 62.00 2034.40 61.40
  L 2020.39 22.67
  A 0.20 0.20 0.0 0 0 2020.00 22.74
  L 2020.00 61.00
  A 1.00 1.00 0.0 0 1 2019.00 62.00
  L 2004.55 62.00
  Q 2004.04 62.00 2004.04 61.49
  L 2004.13 0.00
  Z"
/>
<path fill="#ffffff" d="
  M 567.68 262.00
  L 517.44 262.00
  C 500.64 260.76 488.37 254.06 486.29 236.00
  C 485.46 228.76 485.98 220.43 485.99 214.69
  Q 486.01 132.75 486.00 50.81
  C 486.00 42.04 485.02 31.81 487.74 23.00
  C 491.59 10.54 503.43 4.41 516.15 3.56
  Q 535.67 2.27 560.06 3.21
  C 581.84 4.06 596.92 11.35 596.94 36.00
  Q 597.00 133.38 597.00 230.75
  Q 597.00 235.30 595.01 242.19
  C 590.82 256.70 581.47 259.87 567.68 262.00
  Z
  M 555.99 41.04
  L 525.51 40.98
  Q 525.00 40.98 525.00 41.49
  L 525.00 223.50
  Q 525.00 224.00 525.50 224.00
  L 557.50 224.00
  Q 558.00 224.00 558.00 223.50
  L 558.00 43.05
  A 2.01 2.01 0.0 0 0 555.99 41.04
  Z"
/>
<path fill="#ffffff" d="
  M 1472.17 262.00
  L 1421.94 262.00
  C 1408.85 260.79 1397.43 256.73 1392.85 243.52
  Q 1391.14 238.60 1391.04 226.39
  Q 1390.86 206.80 1391.11 187.48
  A 1.19 1.19 0.0 0 1 1392.25 186.31
  Q 1410.40 185.54 1428.55 186.49
  A 1.53 1.52 -88.6 0 1 1430.00 188.02
  L 1430.00 223.50
  Q 1430.00 224.00 1430.50 224.00
  L 1461.00 224.00
  A 2.00 2.00 0.0 0 0 1463.00 222.00
  L 1463.00 153.24
  A 2.20 2.19 90.0 0 0 1460.81 151.04
  Q 1438.41 150.99 1416.82 150.97
  C 1401.56 150.97 1391.06 140.95 1391.04 125.44
  Q 1390.97 83.50 1391.00 41.56
  Q 1391.01 28.70 1392.58 23.61
  C 1396.89 9.61 1409.48 3.94 1423.50 3.29
  Q 1439.08 2.57 1462.75 3.13
  C 1488.01 3.72 1501.87 11.33 1501.97 38.60
  Q 1502.04 56.35 1501.98 73.75
  A 2.24 2.24 0.0 0 1 1499.75 75.99
  L 1465.25 76.01
  A 2.26 2.25 -90.0 0 1 1463.00 73.75
  L 1463.00 43.51
  Q 1463.00 41.02 1460.51 41.02
  L 1430.50 40.99
  Q 1430.00 40.99 1430.00 41.50
  L 1430.00 111.98
  A 2.01 2.00 90.0 0 0 1432.00 113.99
  Q 1450.73 114.02 1469.75 113.98
  C 1483.83 113.96 1496.32 119.78 1500.40 133.59
  Q 1501.88 138.59 1501.94 153.46
  Q 1502.12 205.13 1502.03 229.76
  C 1501.96 250.13 1491.80 260.10 1472.17 262.00
  Z"
/>
<path fill="#ffffff" d="
  M 1664.41 262.00
  L 1613.95 262.00
  C 1600.29 260.27 1589.14 256.81 1584.65 242.81
  Q 1583.06 237.85 1583.04 224.63
  Q 1582.95 129.08 1583.02 33.50
  C 1583.03 21.08 1590.38 9.12 1602.77 5.52
  Q 1611.18 3.08 1621.25 2.84
  Q 1635.81 2.50 1650.37 3.01
  C 1657.39 3.26 1664.01 3.16 1670.92 4.75
  C 1687.31 8.55 1693.99 20.12 1693.99 36.38
  Q 1694.00 128.82 1694.00 221.26
  Q 1694.00 236.10 1692.69 241.15
  Q 1687.74 260.21 1664.41 262.00
  Z
  M 1622.00 42.99
  L 1622.00 223.50
  Q 1622.00 224.00 1622.50 224.00
  L 1654.50 224.00
  Q 1655.00 224.00 1655.00 223.50
  L 1655.00 43.39
  A 2.37 2.37 0.0 0 0 1652.64 41.02
  L 1624.01 40.99
  A 2.01 2.00 0.0 0 0 1622.00 42.99
  Z"
/>
<path fill="#ffffff" d="
  M 0.00 259.80
  L 0.00 255.46
  L 43.35 6.39
  A 1.69 1.67 -84.9 0 1 45.00 5.00
  L 84.99 5.00
  A 2.03 2.03 0.0 0 1 86.99 6.70
  Q 106.95 127.18 126.81 247.49
  Q 127.70 252.93 128.07 258.88
  A 1.05 1.05 0.0 0 1 127.02 260.00
  L 88.77 260.00
  A 1.13 1.13 0.0 0 1 87.65 259.03
  L 79.03 197.48
  A 0.56 0.55 -3.5 0 0 78.48 197.00
  L 51.15 197.00
  A 1.56 1.56 0.0 0 0 49.61 198.33
  L 40.50 259.26
  A 0.83 0.83 0.0 0 1 39.68 259.96
  L 0.00 259.80
  Z
  M 56.25 159.03
  L 73.05 158.99
  A 0.92 0.91 -4.1 0 0 73.95 157.96
  L 65.47 94.73
  A 0.16 0.16 0.0 0 0 65.15 94.73
  L 55.60 158.26
  A 0.67 0.66 -85.5 0 0 56.25 159.03
  Z"
/>
<path fill="#ffffff" d="
  M 218.49 223.03
  Q 219.94 223.04 219.95 224.49
  L 220.03 258.96
  A 1.05 1.04 0.0 0 1 218.98 260.00
  L 145.50 260.00
  Q 143.00 260.00 143.00 257.50
  L 143.00 7.21
  A 2.12 2.12 0.0 0 1 145.11 5.09
  L 179.54 4.96
  Q 182.00 4.95 182.00 7.41
  L 182.00 222.12
  Q 182.00 222.98 182.87 222.98
  L 218.49 223.03
  Z"
/>
<path fill="#ffffff" d="
  M 235.58 260.00
  Q 234.81 260.00 234.66 259.25
  C 234.37 257.76 234.00 256.19 234.00 254.60
  C 234.00 172.11 233.21 89.50 234.29 7.03
  A 1.02 1.02 0.0 0 1 234.79 6.17
  Q 236.49 5.14 239.69 5.10
  Q 254.97 4.90 270.25 5.03
  Q 271.91 5.05 272.51 5.34
  Q 274.00 6.06 274.00 7.25
  L 274.00 222.50
  A 0.50 0.50 0.0 0 0 274.50 223.00
  L 309.49 223.00
  Q 311.80 223.00 311.82 225.31
  L 312.04 258.34
  Q 312.06 259.98 310.41 259.98
  L 235.58 260.00
  Z"
/>
<path fill="#ffffff" d="
  M 421.75 90.52
  Q 428.92 51.02 436.43 11.24
  Q 436.94 8.55 438.15 6.03
  Q 438.36 5.60 438.82 5.49
  Q 440.83 5.04 441.56 5.04
  Q 455.03 4.96 468.50 5.01
  Q 472.43 5.03 475.82 5.64
  A 1.32 1.32 0.0 0 1 476.87 7.22
  Q 459.59 87.75 442.15 167.71
  C 441.27 171.75 440.78 176.60 440.81 180.06
  Q 441.15 217.66 440.93 257.86
  Q 440.91 259.81 438.96 259.85
  Q 422.82 260.16 405.51 259.96
  Q 403.57 259.93 402.25 259.69
  A 0.76 0.76 0.0 0 1 401.64 259.06
  Q 401.03 255.13 401.03 253.94
  Q 400.97 224.68 401.01 195.43
  C 401.02 185.82 401.95 175.47 399.71 165.25
  Q 382.44 86.65 365.33 8.32
  A 2.35 2.35 0.0 0 1 367.50 5.47
  C 379.29 4.82 390.85 4.99 402.11 5.00
  Q 404.37 5.00 404.79 7.22
  L 420.74 90.52
  A 0.52 0.51 44.8 0 0 421.75 90.52
  Z"
/>
<path fill="#ffffff" d="
  M 698.44 262.00
  L 647.20 262.00
  C 620.68 259.34 616.02 244.79 616.01 221.05
  Q 615.98 114.82 616.01 8.63
  A 3.35 3.34 89.2 0 1 619.26 5.28
  Q 634.62 4.82 650.50 4.83
  Q 653.21 4.83 654.78 5.42
  Q 656.00 5.88 656.00 7.19
  L 656.00 223.50
  A 0.50 0.50 0.0 0 0 656.50 224.00
  L 687.50 224.00
  Q 688.00 224.00 688.00 223.50
  L 688.00 8.35
  A 3.23 3.23 0.0 0 1 691.21 5.12
  L 725.88 4.96
  Q 727.99 4.95 727.99 7.07
  Q 728.01 117.80 728.00 228.00
  C 728.00 248.98 719.07 259.26 698.44 262.00
  Z"
/>
<path fill="#ffffff" d="
  M 888.00 120.77
  L 888.00 8.29
  A 3.15 3.15 0.0 0 1 891.14 5.14
  L 925.06 4.94
  A 1.93 1.93 0.0 0 1 927.00 6.87
  L 927.00 259.00
  A 1.00 1.00 0.0 0 1 926.00 260.00
  L 889.59 260.00
  Q 888.42 260.00 888.11 258.88
  L 855.43 143.13
  A 0.20 0.20 0.0 0 0 855.03 143.18
  Q 855.00 194.77 854.83 246.50
  Q 854.81 252.96 854.59 258.40
  Q 854.53 259.94 852.98 259.94
  L 818.52 260.03
  Q 816.00 260.03 816.00 257.52
  L 816.00 6.95
  A 1.87 1.86 -0.2 0 1 817.86 5.09
  L 852.94 4.96
  A 1.98 1.97 81.9 0 1 854.85 6.40
  L 887.11 120.90
  Q 888.00 124.04 888.00 120.77
  Z"
/>
<path fill="#ffffff" d="
  M 989.48 111.96
  Q 1004.37 112.06 1019.25 112.09
  Q 1020.83 112.09 1021.64 112.30
  Q 1022.96 112.64 1022.96 114.00
  L 1023.02 147.25
  Q 1023.02 149.84 1020.44 149.86
  L 989.47 150.06
  Q 989.00 150.07 989.00 150.54
  L 989.00 222.50
  A 0.50 0.50 0.0 0 0 989.50 223.00
  L 1022.50 223.00
  A 0.50 0.50 0.0 0 1 1023.00 223.50
  L 1023.00 259.00
  A 1.00 1.00 0.0 0 1 1022.00 260.00
  L 951.50 260.00
  Q 949.00 260.00 949.00 257.50
  L 949.00 7.76
  Q 949.00 5.02 951.74 5.02
  L 1020.71 4.99
  Q 1023.00 4.99 1023.00 7.28
  L 1023.00 41.50
  A 0.50 0.50 0.0 0 1 1022.50 42.00
  L 989.50 42.00
  Q 989.00 42.00 989.00 42.50
  L 989.00 111.47
  Q 989.00 111.95 989.48 111.96
  Z"
/>
<path fill="#ffffff" d="
  M 1081.48 111.95
  L 1114.43 112.10
  A 1.59 1.58 0.2 0 1 1116.01 113.68
  L 1115.99 147.89
  Q 1115.98 149.76 1114.12 149.78
  L 1081.45 150.10
  A 0.45 0.45 0.0 0 0 1081.00 150.55
  L 1081.00 222.49
  A 0.49 0.49 0.0 0 0 1081.49 222.98
  Q 1096.76 223.01 1112.25 223.07
  Q 1113.90 223.08 1114.59 223.34
  Q 1115.95 223.85 1115.95 225.00
  Q 1116.03 240.91 1115.99 256.00
  Q 1115.99 257.45 1115.51 259.32
  Q 1115.35 259.96 1114.70 259.96
  L 1042.76 260.02
  A 0.76 0.76 0.0 0 1 1042.00 259.26
  L 1042.00 6.91
  A 1.85 1.84 90.0 0 1 1043.84 5.06
  L 1114.25 4.98
  Q 1115.72 4.98 1115.66 6.45
  C 1115.63 7.13 1115.97 8.16 1115.97 8.90
  Q 1116.05 25.21 1115.98 41.51
  Q 1115.98 42.00 1115.49 42.00
  L 1081.50 42.00
  Q 1081.00 42.00 1081.00 42.50
  L 1081.00 111.48
  Q 1081.00 111.95 1081.48 111.95
  Z"
/>
<path fill="#ffffff" d="
  M 1135.42 259.74
  A 1.55 1.55 0.0 0 1 1134.00 258.20
  Q 1134.00 135.15 1134.00 12.45
  C 1134.00 10.90 1134.27 9.27 1134.33 7.64
  A 2.28 2.28 0.0 0 1 1136.48 5.44
  C 1160.64 4.02 1185.51 4.98 1209.75 5.01
  C 1231.96 5.03 1245.96 16.24 1245.97 39.31
  Q 1246.06 184.26 1245.98 222.50
  C 1245.95 239.57 1241.96 255.35 1223.07 259.11
  C 1216.73 260.38 1210.91 260.05 1204.55 260.03
  Q 1171.03 259.96 1137.50 259.82
  Q 1136.32 259.82 1135.42 259.74
  Z
  M 1206.00 43.40
  A 0.40 0.40 0.0 0 0 1205.60 43.00
  L 1174.40 43.00
  A 0.40 0.40 0.0 0 0 1174.00 43.40
  L 1174.00 222.60
  A 0.40 0.40 0.0 0 0 1174.40 223.00
  L 1205.60 223.00
  A 0.40 0.40 0.0 0 0 1206.00 222.60
  L 1206.00 43.40
  Z"
/>
<path fill="#ffffff" d="
  M 1333.80 260.02
  A 1.81 1.81 0.0 0 1 1331.99 258.21
  L 1331.99 7.81
  A 2.79 2.09 -90.0 0 1 1334.08 5.02
  L 1368.92 5.02
  A 2.79 2.09 -90.0 0 1 1371.01 7.81
  L 1371.01 258.21
  A 1.81 1.81 0.0 0 1 1369.20 260.02
  L 1333.80 260.02
  Z"
/>
<path fill="#ffffff" d="
  M 1786.40 122.61
  A 0.31 0.30 37.2 0 0 1787.00 122.53
  L 1787.00 8.52
  A 3.25 3.25 0.0 0 1 1790.13 5.27
  Q 1803.33 4.74 1817.50 4.90
  Q 1821.64 4.94 1824.87 5.62
  Q 1826.00 5.85 1826.00 7.00
  L 1826.00 257.97
  Q 1826.00 259.94 1824.03 259.94
  L 1788.35 260.03
  A 1.50 1.50 0.0 0 1 1786.91 258.94
  L 1753.65 141.08
  A 0.16 0.16 0.0 0 0 1753.34 141.08
  C 1752.58 144.26 1752.98 147.31 1752.98 150.07
  Q 1753.02 204.54 1752.99 259.01
  A 0.99 0.99 0.0 0 1 1752.00 260.00
  L 1715.50 260.00
  A 0.50 0.50 0.0 0 1 1715.00 259.50
  L 1715.00 7.17
  A 2.09 2.09 0.0 0 1 1717.08 5.08
  L 1752.90 4.96
  A 0.39 0.38 82.0 0 1 1753.27 5.24
  L 1786.40 122.61
  Z"
/>
<path fill="#ffffff" d="
  M 1887.50 112.00
  L 1919.88 112.00
  A 2.13 2.12 0.1 0 1 1922.01 114.13
  L 1921.97 148.12
  Q 1921.97 149.70 1920.39 149.72
  L 1887.44 150.11
  Q 1887.00 150.12 1887.00 150.56
  L 1887.00 222.49
  A 0.49 0.49 0.0 0 0 1887.49 222.98
  L 1919.89 223.04
  Q 1921.98 223.04 1921.99 225.14
  L 1922.01 259.37
  Q 1922.01 260.00 1921.38 260.00
  L 1850.25 260.00
  A 2.25 2.25 0.0 0 1 1848.00 257.75
  L 1848.00 7.12
  Q 1848.00 5.05 1850.07 5.05
  L 1919.17 4.98
  Q 1922.00 4.98 1922.00 7.80
  L 1922.00 41.50
  Q 1922.00 42.00 1921.50 42.00
  L 1887.50 42.00
  Q 1887.00 42.00 1887.00 42.50
  L 1887.00 111.50
  Q 1887.00 112.00 1887.50 112.00
  Z"
/>
</svg>
