<?xml version="1.0" encoding="UTF-8" standalone="no"?>
<!DOCTYPE svg PUBLIC "-//W3C//DTD SVG 1.1//EN" "http://www.w3.org/Graphics/SVG/1.1/DTD/svg11.dtd">
<svg xmlns="http://www.w3.org/2000/svg" version="1.1" viewBox="0.00 0.00 544.00 85.00">
<path fill="#ffffff" d="
  M 213.83 85.00
  L 188.73 85.00
  L 160.44 24.39
  Q 160.18 23.84 159.92 24.39
  L 131.56 85.00
  L 107.26 85.00
  L 149.13 1.04
  Q 149.40 0.50 150.01 0.50
  L 171.23 0.50
  Q 171.72 0.50 171.93 0.93
  L 213.83 85.00
  Z"
/>
<path fill="#ffffff" d="
  M 543.19 85.00
  L 518.48 85.00
  L 490.19 24.44
  Q 489.92 23.88 489.66 24.44
  L 461.32 85.00
  L 437.02 85.00
  L 478.91 1.00
  Q 479.16 0.50 479.73 0.50
  L 500.99 0.50
  A 0.87 0.86 76.5 0 1 501.76 0.98
  L 543.45 84.49
  Q 543.52 84.63 543.40 84.73
  Q 543.24 84.86 543.19 85.00
  Z"
/>
<path fill="#ffffff" d="
  M 23.13 33.00
  L 69.62 33.00
  A 0.38 0.38 0.0 0 0 70.00 32.62
  L 70.00 1.13
  A 0.38 0.38 0.0 0 1 70.38 0.75
  L 91.87 0.75
  A 0.38 0.38 0.0 0 1 92.25 1.13
  L 92.25 84.37
  A 0.38 0.38 0.0 0 1 91.87 84.75
  L 70.38 84.75
  A 0.38 0.38 0.0 0 1 70.00 84.37
  L 70.00 51.38
  A 0.38 0.38 0.0 0 0 69.62 51.00
  L 23.13 51.00
  A 0.38 0.38 0.0 0 0 22.75 51.38
  L 22.75 84.37
  A 0.38 0.38 0.0 0 1 22.37 84.75
  L 0.88 84.75
  A 0.38 0.38 0.0 0 1 0.50 84.37
  L 0.50 1.13
  A 0.38 0.38 0.0 0 1 0.88 0.75
  L 22.37 0.75
  A 0.38 0.38 0.0 0 1 22.75 1.13
  L 22.75 32.62
  A 0.38 0.38 0.0 0 0 23.13 33.00
  Z"
/>
<path fill="#ffffff" d="
  M 248.41 84.75
  L 228.34 84.75
  A 0.34 0.34 0.0 0 1 228.00 84.41
  L 228.00 1.09
  A 0.34 0.34 0.0 0 1 228.34 0.75
  L 250.13 0.75
  A 0.34 0.34 0.0 0 1 250.38 0.86
  L 300.41 54.23
  A 0.34 0.34 0.0 0 0 301.00 54.00
  L 301.00 1.09
  A 0.34 0.34 0.0 0 1 301.34 0.75
  L 321.41 0.75
  A 0.34 0.34 0.0 0 1 321.75 1.09
  L 321.75 84.41
  A 0.34 0.34 0.0 0 1 321.41 84.75
  L 300.11 84.75
  A 0.34 0.34 0.0 0 1 299.86 84.64
  L 249.34 29.91
  A 0.34 0.34 0.0 0 0 248.75 30.14
  L 248.75 84.41
  A 0.34 0.34 0.0 0 1 248.41 84.75
  Z"
/>
<path fill="#ffffff" d="
  M 340.50 17.81
  L 340.50 1.19
  A 0.44 0.44 0.0 0 1 340.94 0.75
  L 428.81 0.75
  A 0.44 0.44 0.0 0 1 429.25 1.19
  L 429.25 11.37
  A 0.44 0.44 0.0 0 1 429.11 11.69
  L 373.32 65.24
  A 0.44 0.44 0.0 0 0 373.62 66.00
  L 427.81 66.00
  A 0.44 0.44 0.0 0 1 428.25 66.44
  L 428.25 84.31
  A 0.44 0.44 0.0 0 1 427.81 84.75
  L 337.94 84.75
  A 0.44 0.44 0.0 0 1 337.50 84.31
  L 337.50 73.55
  A 0.44 0.44 0.0 0 1 337.63 73.23
  L 393.96 19.01
  A 0.44 0.44 0.0 0 0 393.66 18.25
  L 340.94 18.25
  A 0.44 0.44 0.0 0 1 340.50 17.81
  Z"
/>
</svg>
