<svg xmlns="http://www.w3.org/2000/svg" xmlns:xlink="http://www.w3.org/1999/xlink" viewBox="0 0 500 500"><defs><clipPath id="freepik--clip-path--inject-56"><path d="M277,291.53l1.05,70.17-4.35,61.4s-7,4.3-11.58.4c0,0-1.47-42,1.66-60.27,0,0-3.9-29.27-5.19-55.16l-.7-18.1,19.38-1.56Z" style="fill:#3C1054;stroke:#263238;stroke-linecap:round;stroke-linejoin:round;stroke-width:0.75px"></path></clipPath><clipPath id="freepik--clip-path-2--inject-56"><path d="M256.87,290l-19.38-1.56.28,3.12-1.06,70.17-.83,61.4s7,4.3,11.58.4c0,0,6.65-42,3.53-60.27,0,0,3.89-29.27,5.18-55.16,0,0,6.52-3.64,5.33-18.39Z" style="fill:#3C1054;stroke:#263238;stroke-linecap:round;stroke-linejoin:round;stroke-width:0.75px"></path></clipPath><clipPath id="freepik--clip-path-3--inject-56"><polygon points="264.12 218.49 250.18 218.49 251.22 201.37 263.08 201.37 264.12 218.49" style="fill:#fff;stroke:#263238;stroke-linecap:round;stroke-linejoin:round;stroke-width:0.75px"></polygon></clipPath><clipPath id="freepik--clip-path-4--inject-56"><path d="M387.19,202.83v15.94c16.19,5.26,28.27,23.75,28.62,40.34,6.15,2.63,9.21,4,15.27,6.89C431.44,239.65,411.64,211.83,387.19,202.83Z" style="fill:#3C1054;stroke:#263238;stroke-miterlimit:10"></path></clipPath><clipPath id="freepik--clip-path-5--inject-56"><path d="M359.83,219.82c-4.52-5.72-6.78-8.55-11.32-14.15-9.95,7-11.84,18-13.39,29,6.46,1.33,9.67,2.06,16.09,3.64C351.21,230.23,354.51,223.7,359.83,219.82Z" style="fill:#3C1054;stroke:#263238;stroke-miterlimit:10"></path></clipPath><clipPath id="freepik--clip-path-6--inject-56"><path d="M281.19,78.83v0a1.68,1.68,0,0,0-.84-.88h0a1.5,1.5,0,0,0-.56-.15c-2.26-.16-3.39-.23-5.65-.36a1.42,1.42,0,0,0-1.54,1.41,1.63,1.63,0,0,0,1.54,1.59l1.93.11q-16.44,15.15-32.4,30.75a419.61,419.61,0,0,0-46.58,3.28,1.78,1.78,0,0,0-1.08.58q-11.29,12.63-22.36,25.43-11-8.79-22.19-17.23a1.62,1.62,0,0,0-2.14.52q-11.47,14.24-22.56,28.77c-8.9,2.72-13.33,4.21-22.1,7.43a2.09,2.09,0,0,0-.66.4C88.63,174,74,188.15,59.7,202.74a2.16,2.16,0,0,0-.64,2.33c.25.4.75.45,1.27.19a2.2,2.2,0,0,0,.63-.47c14.23-14.44,28.77-28.5,44-41.86,8.88-3.25,13.36-4.75,22.36-7.49a2.17,2.17,0,0,0,1.06-.75q10.8-14.1,22-27.91,11.22,8.4,22.18,17.18a1.62,1.62,0,0,0,2.16-.4q11.38-13.16,23-26.08a419.52,419.52,0,0,1,46.58-3.21,1.59,1.59,0,0,0,1.09-.46q16.22-15.75,32.85-31v1.88a1.66,1.66,0,0,0,1.54,1.61,1.4,1.4,0,0,0,1.54-1.39v-5.5A1.55,1.55,0,0,0,281.19,78.83Z" style="fill:#3C1054;stroke:#263238;stroke-miterlimit:10"></path></clipPath><clipPath id="freepik--clip-path-7--inject-56"><path d="M107.8,160.41a5.06,5.06,0,0,1-3.17,4.38c-1.75.64-3.16-.27-3.16-2.06a5.08,5.08,0,0,1,3.16-4.4C106.38,157.69,107.8,158.62,107.8,160.41Z" style="fill:#3C1054;stroke:#263238;stroke-linecap:round;stroke-linejoin:round;stroke-width:0.75px"></path></clipPath><clipPath id="freepik--clip-path-8--inject-56"><path d="M130.56,153a4.7,4.7,0,0,1-3.22,4.2,2.3,2.3,0,0,1-3.21-2.25,4.74,4.74,0,0,1,3.21-4.22A2.32,2.32,0,0,1,130.56,153Z" style="fill:#3C1054;stroke:#263238;stroke-linecap:round;stroke-linejoin:round;stroke-width:0.75px"></path></clipPath><clipPath id="freepik--clip-path-9--inject-56"><path d="M176.9,142.11a4.09,4.09,0,0,1-3.28,3.82,2.63,2.63,0,0,1-3.28-2.62,4.1,4.1,0,0,1,3.28-3.84A2.64,2.64,0,0,1,176.9,142.11Z" style="fill:#3C1054;stroke:#263238;stroke-linecap:round;stroke-linejoin:round;stroke-width:0.75px"></path></clipPath><clipPath id="freepik--clip-path-10--inject-56"><path d="M200.37,115.66a3.81,3.81,0,0,1-3.31,3.63,2.81,2.81,0,0,1-3.3-2.8,3.84,3.84,0,0,1,3.3-3.66A2.83,2.83,0,0,1,200.37,115.66Z" style="fill:#3C1054;stroke:#263238;stroke-linecap:round;stroke-linejoin:round;stroke-width:0.75px"></path></clipPath><clipPath id="freepik--clip-path-11--inject-56"><path d="M224,113.53a3.56,3.56,0,0,1-3.32,3.45,3,3,0,0,1-3.32-3,3.58,3.58,0,0,1,3.32-3.48A3,3,0,0,1,224,113.53Z" style="fill:#3C1054;stroke:#263238;stroke-linecap:round;stroke-linejoin:round;stroke-width:0.75px"></path></clipPath><clipPath id="freepik--clip-path-12--inject-56"><path d="M247.61,112.74a3.33,3.33,0,0,1-3.33,3.26,3.22,3.22,0,0,1-3.32-3.17,3.34,3.34,0,0,1,3.32-3.29A3.23,3.23,0,0,1,247.61,112.74Z" style="fill:#3C1054;stroke:#263238;stroke-linecap:round;stroke-linejoin:round;stroke-width:0.75px"></path></clipPath><clipPath id="freepik--clip-path-13--inject-56"><path d="M271.26,90.26a3.1,3.1,0,0,1-3.32,3.08A3.44,3.44,0,0,1,264.62,90a3.13,3.13,0,0,1,3.32-3.1A3.46,3.46,0,0,1,271.26,90.26Z" style="fill:#3C1054;stroke:#263238;stroke-linecap:round;stroke-linejoin:round;stroke-width:0.75px"></path></clipPath><clipPath id="freepik--clip-path-14--inject-56"><path d="M153.61,123.88a4.38,4.38,0,0,1-3.25,4,2.46,2.46,0,0,1-3.25-2.43,4.39,4.39,0,0,1,3.25-4A2.47,2.47,0,0,1,153.61,123.88Z" style="fill:#3C1054;stroke:#263238;stroke-linecap:round;stroke-linejoin:round;stroke-width:0.75px"></path></clipPath></defs><g id="freepik--background-simple--inject-56"><path d="M84.61,304.62c-26.75-71.17,7.29-123,44-133.68,51.56-15,99.87,39.57,133.23,31.83,26.85-6.23,31.33-71.75,70.08-85.13,48-16.56,108.05,21.81,108.7,84.74C441.26,264.91,377,319.22,334,340.75c-42.48,21.3-112.16,37.6-150.9,32.24C139,366.88,100.57,347.07,84.61,304.62Z" style="fill:#3C1054"></path><path d="M84.61,304.62c-26.75-71.17,7.29-123,44-133.68,51.56-15,99.87,39.57,133.23,31.83,26.85-6.23,31.33-71.75,70.08-85.13,48-16.56,108.05,21.81,108.7,84.74C441.26,264.91,377,319.22,334,340.75c-42.48,21.3-112.16,37.6-150.9,32.24C139,366.88,100.57,347.07,84.61,304.62Z" style="fill:#fff;opacity:0.7000000000000001"></path></g><g id="freepik--chart-4--inject-56"><path d="M439.67,329a465.35,465.35,0,0,0-113.29-38.07v-115A465.35,465.35,0,0,1,439.67,214Z" style="fill:#3C1054"></path><path d="M439.67,329a465.35,465.35,0,0,0-113.29-38.07v-115A465.35,465.35,0,0,1,439.67,214Z" style="fill:#fff;opacity:0.5"></path><path d="M326.38,244.91A465.35,465.35,0,0,1,439.67,283" style="fill:none;stroke:#263238;stroke-linecap:round;stroke-linejoin:round;stroke-width:0.75px"></path><path d="M326.38,175.91v115" style="fill:none;stroke:#263238;stroke-linecap:round;stroke-linejoin:round;stroke-width:0.75px"></path><path d="M326.38,198.91A465.35,465.35,0,0,1,439.67,237" style="fill:none;stroke:#263238;stroke-linecap:round;stroke-linejoin:round;stroke-width:0.75px"></path><path d="M439.67,260a465.35,465.35,0,0,0-113.29-38.07" style="fill:none;stroke:#263238;stroke-linecap:round;stroke-linejoin:round;stroke-width:0.75px"></path><path d="M439.67,283a465.35,465.35,0,0,0-113.29-38.07" style="fill:none;stroke:#263238;stroke-linecap:round;stroke-linejoin:round;stroke-width:0.75px"></path><path d="M326.38,267.91A465.35,465.35,0,0,1,439.67,306" style="fill:none;stroke:#263238;stroke-linecap:round;stroke-linejoin:round;stroke-width:0.75px"></path><path d="M349.64,295.87v-115" style="fill:none;stroke:#263238;stroke-linecap:round;stroke-linejoin:round;stroke-width:0.75px"></path><path d="M372.66,302.16v-115" style="fill:none;stroke:#263238;stroke-linecap:round;stroke-linejoin:round;stroke-width:0.75px"></path><path d="M417.73,318.71v-115" style="fill:none;stroke:#263238;stroke-linecap:round;stroke-linejoin:round;stroke-width:0.75px"></path><path d="M395.37,194.77v115" style="fill:none;stroke:#263238;stroke-linecap:round;stroke-linejoin:round;stroke-width:0.75px"></path><path d="M439.67,330.48a465.35,465.35,0,0,0-113.29-38.07,1.89,1.89,0,0,1-1.52-1.78v-115a1.22,1.22,0,0,1,1.52-1.22,465.35,465.35,0,0,1,113.29,38.07,2.74,2.74,0,0,1,1.42,2.21v115C441.09,330.52,440.45,330.87,439.67,330.48ZM327.9,289.69a465.63,465.63,0,0,1,110.35,37.08v-112A465.63,465.63,0,0,0,327.9,177.69Z" style="fill:#3C1054;stroke:#263238;stroke-miterlimit:10"></path><path d="M387.19,202.83v15.94c16.19,5.26,28.27,23.75,28.62,40.34,6.15,2.63,9.21,4,15.27,6.89C431.44,239.65,411.64,211.83,387.19,202.83Z" style="fill:#3C1054"></path><g style="clip-path:url(#freepik--clip-path-4--inject-56)"><path d="M387.19,202.83v15.94c16.19,5.26,28.27,23.75,28.62,40.34,6.15,2.63,9.21,4,15.27,6.89C431.44,239.65,411.64,211.83,387.19,202.83Z" style="opacity:0.30000000000000004"></path></g><path d="M387.19,202.83v15.94c16.19,5.26,28.27,23.75,28.62,40.34,6.15,2.63,9.21,4,15.27,6.89C431.44,239.65,411.64,211.83,387.19,202.83Z" style="fill:none;stroke:#263238;stroke-miterlimit:10"></path><path d="M359.83,219.82c-4.52-5.72-6.78-8.55-11.32-14.15-9.95,7-11.84,18-13.39,29,6.46,1.33,9.67,2.06,16.09,3.64C351.21,230.23,354.51,223.7,359.83,219.82Z" style="fill:#3C1054"></path><g style="clip-path:url(#freepik--clip-path-5--inject-56)"><path d="M359.83,219.82c-4.52-5.72-6.78-8.55-11.32-14.15-9.95,7-11.84,18-13.39,29,6.46,1.33,9.67,2.06,16.09,3.64C351.21,230.23,354.51,223.7,359.83,219.82Z" style="fill:#fff;opacity:0.7000000000000001"></path></g><path d="M359.83,219.82c-4.52-5.72-6.78-8.55-11.32-14.15-9.95,7-11.84,18-13.39,29,6.46,1.33,9.67,2.06,16.09,3.64C351.21,230.23,354.51,223.7,359.83,219.82Z" style="fill:none;stroke:#263238;stroke-miterlimit:10"></path><path d="M384.68,220.46V204.52c-10.62-3.71-22.68-2.87-31.9,3.9,4.53,5.64,6.79,8.5,11.3,14.27C369.38,218.87,376.68,217.77,384.68,220.46Z" style="fill:#3C1054;stroke:#263238;stroke-miterlimit:10"></path><path d="M413.34,260.62c1.42,16.5-15.67,22.85-28.66,18.49-15.06-5.05-29.54-21.12-29.2-38-6.4-1.65-9.61-2.41-16.06-3.81.51,25.79,21.54,49.75,45.26,57.75,21.4,7.21,44.56-2.42,44-27.64C422.57,264.56,419.51,263.2,413.34,260.62Z" style="fill:#3C1054;stroke:#263238;stroke-miterlimit:10"></path></g><g id="freepik--chart-3--inject-56"><path d="M173.62,290.91A465.35,465.35,0,0,0,60.33,329V214a465.35,465.35,0,0,1,113.29-38.07Z" style="fill:#3C1054"></path><path d="M173.62,290.91A465.35,465.35,0,0,0,60.33,329V214a465.35,465.35,0,0,1,113.29-38.07Z" style="fill:#fff;opacity:0.7000000000000001"></path><path d="M60.33,283a465.35,465.35,0,0,1,113.29-38.07" style="fill:none;stroke:#263238;stroke-linecap:round;stroke-linejoin:round;stroke-width:0.75px"></path><path d="M60.33,214V329" style="fill:none;stroke:#263238;stroke-linecap:round;stroke-linejoin:round;stroke-width:0.75px"></path><path d="M61,327.44Q71.51,276.64,82.27,225.9q11.17,41.34,22.36,82.69A419,419,0,0,0,61,327.44Z" style="fill:#3C1054"></path><path d="M61,327.44Q71.51,276.64,82.27,225.9q11.17,41.34,22.36,82.69A419,419,0,0,0,61,327.44Z" style="fill:#fff;opacity:0.30000000000000004"></path><path d="M82.63,317.37q10.8-27.28,22-54.41,11.24,19,22.34,38.13A418.63,418.63,0,0,0,82.63,317.37Z" style="fill:#3C1054"></path><path d="M82.63,317.37q10.8-27.28,22-54.41,11.24,19,22.34,38.13A418.63,418.63,0,0,0,82.63,317.37Z" style="opacity:0.2"></path><path d="M127.34,301q11.21-37.44,22.65-74.82,11.47,31.85,22.87,63.71A421.16,421.16,0,0,0,127.34,301Z" style="fill:#3C1054"></path><path d="M127.34,301q11.21-37.44,22.65-74.82,11.47,31.85,22.87,63.71A421.16,421.16,0,0,0,127.34,301Z" style="opacity:0.4"></path><path d="M105,308.45q11-38.08,22.35-76.1,11.37,31.2,22.65,62.43A420.27,420.27,0,0,0,105,308.45Z" style="fill:#3C1054"></path><path d="M60.33,237a465.35,465.35,0,0,1,113.29-38.07" style="fill:none;stroke:#263238;stroke-linecap:round;stroke-linejoin:round;stroke-width:0.75px"></path><path d="M173.62,221.91A465.35,465.35,0,0,0,60.33,260" style="fill:none;stroke:#263238;stroke-linecap:round;stroke-linejoin:round;stroke-width:0.75px"></path><path d="M173.62,244.91A465.35,465.35,0,0,0,60.33,283" style="fill:none;stroke:#263238;stroke-linecap:round;stroke-linejoin:round;stroke-width:0.75px"></path><path d="M60.33,306a465.35,465.35,0,0,1,113.29-38.07" style="fill:none;stroke:#263238;stroke-linecap:round;stroke-linejoin:round;stroke-width:0.75px"></path><path d="M82.27,318.71v-115" style="fill:none;stroke:#263238;stroke-linecap:round;stroke-linejoin:round;stroke-width:0.75px"></path><path d="M104.63,309.77v-115" style="fill:none;stroke:#263238;stroke-linecap:round;stroke-linejoin:round;stroke-width:0.75px"></path><path d="M150.36,295.87v-115" style="fill:none;stroke:#263238;stroke-linecap:round;stroke-linejoin:round;stroke-width:0.75px"></path><path d="M127.34,187.16v115" style="fill:none;stroke:#263238;stroke-linecap:round;stroke-linejoin:round;stroke-width:0.75px"></path><path d="M173.62,292.41A465.35,465.35,0,0,0,60.33,330.48c-.78.39-1.42,0-1.42-.79v-115a2.74,2.74,0,0,1,1.42-2.21,465.35,465.35,0,0,1,113.29-38.07,1.22,1.22,0,0,1,1.52,1.22v115A1.89,1.89,0,0,1,173.62,292.41ZM61.75,326.77A465.63,465.63,0,0,1,172.1,289.69v-112A465.63,465.63,0,0,0,61.75,214.77Z" style="fill:#3C1054;stroke:#263238;stroke-miterlimit:10"></path></g><g id="freepik--chart-2--inject-56"><path d="M439.67,203.76a457.46,457.46,0,0,0-136.73-41.7v-115a457.46,457.46,0,0,1,136.73,41.7Z" style="fill:#858585"></path><path d="M439.67,203.76a457.46,457.46,0,0,0-136.73-41.7v-115a457.46,457.46,0,0,1,136.73,41.7Z" style="fill:#fff;opacity:0.5"></path><path d="M302.94,70.06a457.46,457.46,0,0,1,136.73,41.7" style="fill:none;stroke:#263238;stroke-linecap:round;stroke-linejoin:round;stroke-width:0.75px"></path><path d="M439.67,134.76a457.46,457.46,0,0,0-136.73-41.7" style="fill:none;stroke:#263238;stroke-linecap:round;stroke-linejoin:round;stroke-width:0.75px"></path><path d="M302.94,116.06a457.46,457.46,0,0,1,136.73,41.7" style="fill:none;stroke:#263238;stroke-linecap:round;stroke-linejoin:round;stroke-width:0.75px"></path><path d="M439.67,157.76a457.46,457.46,0,0,0-136.73-41.7" style="fill:none;stroke:#263238;stroke-linecap:round;stroke-linejoin:round;stroke-width:0.75px"></path><path d="M302.94,139.06a457.46,457.46,0,0,1,136.73,41.7" style="fill:none;stroke:#263238;stroke-linecap:round;stroke-linejoin:round;stroke-width:0.75px"></path><path d="M349.64,170.66v-115" style="fill:none;stroke:#263238;stroke-linecap:round;stroke-linejoin:round;stroke-width:0.75px"></path><path d="M326.38,50.7v115" style="fill:none;stroke:#263238;stroke-linecap:round;stroke-linejoin:round;stroke-width:0.75px"></path><path d="M372.66,176.94v-115" style="fill:none;stroke:#263238;stroke-linecap:round;stroke-linejoin:round;stroke-width:0.75px"></path><path d="M417.73,193.5V78.5" style="fill:none;stroke:#263238;stroke-linecap:round;stroke-linejoin:round;stroke-width:0.75px"></path><path d="M395.37,69.56v115" style="fill:none;stroke:#263238;stroke-linecap:round;stroke-linejoin:round;stroke-width:0.75px"></path><path d="M439.67,205.26a457.46,457.46,0,0,0-136.73-41.7,1.77,1.77,0,0,1-1.54-1.69v-115a1.31,1.31,0,0,1,1.54-1.31,457.46,457.46,0,0,1,136.73,41.7,2.77,2.77,0,0,1,1.42,2.22v115C441.09,205.31,440.45,205.66,439.67,205.26Zm-135.2-44.5a457.6,457.6,0,0,1,133.78,40.79v-112A457.6,457.6,0,0,0,304.47,48.76Z" style="fill:#3C1054;stroke:#263238;stroke-miterlimit:10"></path><path d="M338,166.57c-2.33-.5-3.49-.74-5.82-1.2v-40c2.33.47,3.49.71,5.82,1.2Z" style="fill:#263238;stroke:#263238;stroke-linecap:round;stroke-linejoin:round;stroke-width:0.75px"></path><path d="M343.85,167.85c-2.32-.53-3.49-.78-5.81-1.28v-34.4c2.32.49,3.49.75,5.81,1.28Z" style="fill:#3C1054;stroke:#263238;stroke-linecap:round;stroke-linejoin:round;stroke-width:0.75px"></path><path d="M361.18,172.19c-2.3-.62-3.45-.93-5.76-1.53V128.52c2.31.6,3.46.9,5.76,1.53Z" style="fill:#263238;stroke:#263238;stroke-linecap:round;stroke-linejoin:round;stroke-width:0.75px"></path><path d="M366.93,173.81c-2.3-.66-3.45-1-5.75-1.62V113.78c2.3.63,3.45,1,5.75,1.61Z" style="fill:#3C1054;stroke:#263238;stroke-linecap:round;stroke-linejoin:round;stroke-width:0.75px"></path><path d="M384.05,179.14c-2.27-.76-3.41-1.13-5.68-1.86V138.45c2.27.73,3.41,1.1,5.68,1.86Z" style="fill:#263238;stroke:#263238;stroke-linecap:round;stroke-linejoin:round;stroke-width:0.75px"></path><path d="M389.72,181.09c-2.26-.8-3.39-1.18-5.67-2V120.73c2.28.76,3.41,1.15,5.67,1.94Z" style="fill:#3C1054;stroke:#263238;stroke-linecap:round;stroke-linejoin:round;stroke-width:0.75px"></path><path d="M406.6,187.42c-2.24-.89-3.36-1.33-5.6-2.19V104.82c2.24.86,3.36,1.3,5.6,2.19Z" style="fill:#263238;stroke:#263238;stroke-linecap:round;stroke-linejoin:round;stroke-width:0.75px"></path><path d="M412.18,189.7c-2.23-.93-3.35-1.39-5.58-2.28V101.94c2.23.89,3.35,1.35,5.58,2.28Z" style="fill:#3C1054;stroke:#263238;stroke-linecap:round;stroke-linejoin:round;stroke-width:0.75px"></path><path d="M428.76,197c-2.2-1-3.3-1.53-5.5-2.52V99.38c2.2,1,3.3,1.5,5.5,2.52Z" style="fill:#263238;stroke:#263238;stroke-linecap:round;stroke-linejoin:round;stroke-width:0.75px"></path><path d="M434.23,199.63c-2.19-1.06-3.28-1.58-5.47-2.61V95.84c2.19,1,3.28,1.55,5.47,2.61Z" style="fill:#3C1054;stroke:#263238;stroke-linecap:round;stroke-linejoin:round;stroke-width:0.75px"></path><path d="M314.4,162.23c-2.35-.36-3.52-.54-5.87-.87V127c2.35.33,3.52.5,5.87.86Z" style="fill:#263238;stroke:#263238;stroke-linecap:round;stroke-linejoin:round;stroke-width:0.75px"></path><path d="M320.26,163.17c-2.35-.39-3.52-.58-5.86-.94V117.67c2.34.36,3.51.55,5.86,1Z" style="fill:#3C1054;stroke:#263238;stroke-linecap:round;stroke-linejoin:round;stroke-width:0.75px"></path></g><g id="freepik--chart-1--inject-56"><path d="M291.56,160.78c-80.74-6.71-158.29,7.73-231.23,43v-115c72.94-35.25,150.49-49.69,231.23-43Z" style="fill:#3C1054"></path><path d="M291.56,160.78c-80.74-6.71-158.29,7.73-231.23,43v-115c72.94-35.25,150.49-49.69,231.23-43Z" style="fill:#fff;opacity:0.8"></path><path d="M82.27,193.5V78.5" style="fill:none;stroke:#263238;stroke-linecap:round;stroke-linejoin:round;stroke-width:0.75px"></path><path d="M104.63,184.56v-115" style="fill:none;stroke:#263238;stroke-linecap:round;stroke-linejoin:round;stroke-width:0.75px"></path><path d="M127.34,176.94v-115" style="fill:none;stroke:#263238;stroke-linecap:round;stroke-linejoin:round;stroke-width:0.75px"></path><path d="M150.36,170.66v-115" style="fill:none;stroke:#263238;stroke-linecap:round;stroke-linejoin:round;stroke-width:0.75px"></path><path d="M173.62,165.7V50.7" style="fill:none;stroke:#263238;stroke-linecap:round;stroke-linejoin:round;stroke-width:0.75px"></path><path d="M197.06,162.06v-115" style="fill:none;stroke:#263238;stroke-linecap:round;stroke-linejoin:round;stroke-width:0.75px"></path><path d="M220.64,159.75v-115" style="fill:none;stroke:#263238;stroke-linecap:round;stroke-linejoin:round;stroke-width:0.75px"></path><path d="M244.28,158.77v-115" style="fill:none;stroke:#263238;stroke-linecap:round;stroke-linejoin:round;stroke-width:0.75px"></path><path d="M267.94,159.11v-115" style="fill:none;stroke:#263238;stroke-linecap:round;stroke-linejoin:round;stroke-width:0.75px"></path><path d="M291.56,45.78c-80.74-6.71-158.29,7.73-231.23,43" style="fill:none;stroke:#263238;stroke-linecap:round;stroke-linejoin:round;stroke-width:0.75px"></path><path d="M60.33,111.76c72.94-35.25,150.49-49.69,231.23-43" style="fill:none;stroke:#263238;stroke-linecap:round;stroke-linejoin:round;stroke-width:0.75px"></path><path d="M60.33,134.76c72.94-35.25,150.49-49.69,231.23-43" style="fill:none;stroke:#263238;stroke-linecap:round;stroke-linejoin:round;stroke-width:0.75px"></path><path d="M60.33,157.76c72.94-35.25,150.49-49.69,231.23-43" style="fill:none;stroke:#263238;stroke-linecap:round;stroke-linejoin:round;stroke-width:0.75px"></path><path d="M60.33,180.76c72.94-35.25,150.49-49.69,231.23-43" style="fill:none;stroke:#263238;stroke-linecap:round;stroke-linejoin:round;stroke-width:0.75px"></path><path d="M281.19,78.83v0a1.68,1.68,0,0,0-.84-.88h0a1.5,1.5,0,0,0-.56-.15c-2.26-.16-3.39-.23-5.65-.36a1.42,1.42,0,0,0-1.54,1.41,1.63,1.63,0,0,0,1.54,1.59l1.93.11q-16.44,15.15-32.4,30.75a419.61,419.61,0,0,0-46.58,3.28,1.78,1.78,0,0,0-1.08.58q-11.29,12.63-22.36,25.43-11-8.79-22.19-17.23a1.62,1.62,0,0,0-2.14.52q-11.47,14.24-22.56,28.77c-8.9,2.72-13.33,4.21-22.1,7.43a2.09,2.09,0,0,0-.66.4C88.63,174,74,188.15,59.7,202.74a2.16,2.16,0,0,0-.64,2.33c.25.4.75.45,1.27.19a2.2,2.2,0,0,0,.63-.47c14.23-14.44,28.77-28.5,44-41.86,8.88-3.25,13.36-4.75,22.36-7.49a2.17,2.17,0,0,0,1.06-.75q10.8-14.1,22-27.91,11.22,8.4,22.18,17.18a1.62,1.62,0,0,0,2.16-.4q11.38-13.16,23-26.08a419.52,419.52,0,0,1,46.58-3.21,1.59,1.59,0,0,0,1.09-.46q16.22-15.75,32.85-31v1.88a1.66,1.66,0,0,0,1.54,1.61,1.4,1.4,0,0,0,1.54-1.39v-5.5A1.55,1.55,0,0,0,281.19,78.83Z" style="fill:#3C1054"></path><g style="clip-path:url(#freepik--clip-path-6--inject-56)"><path d="M281.19,78.83v0a1.68,1.68,0,0,0-.84-.88h0a1.5,1.5,0,0,0-.56-.15c-2.26-.16-3.39-.23-5.65-.36a1.42,1.42,0,0,0-1.54,1.41,1.63,1.63,0,0,0,1.54,1.59l1.93.11q-16.44,15.15-32.4,30.75a419.61,419.61,0,0,0-46.58,3.28,1.78,1.78,0,0,0-1.08.58q-11.29,12.63-22.36,25.43-11-8.79-22.19-17.23a1.62,1.62,0,0,0-2.14.52q-11.47,14.24-22.56,28.77c-8.9,2.72-13.33,4.21-22.1,7.43a2.09,2.09,0,0,0-.66.4C88.63,174,74,188.15,59.7,202.74a2.16,2.16,0,0,0-.64,2.33c.25.4.75.45,1.27.19a2.2,2.2,0,0,0,.63-.47c14.23-14.44,28.77-28.5,44-41.86,8.88-3.25,13.36-4.75,22.36-7.49a2.17,2.17,0,0,0,1.06-.75q10.8-14.1,22-27.91,11.22,8.4,22.18,17.18a1.62,1.62,0,0,0,2.16-.4q11.38-13.16,23-26.08a419.52,419.52,0,0,1,46.58-3.21,1.59,1.59,0,0,0,1.09-.46q16.22-15.75,32.85-31v1.88a1.66,1.66,0,0,0,1.54,1.61,1.4,1.4,0,0,0,1.54-1.39v-5.5A1.55,1.55,0,0,0,281.19,78.83Z" style="fill:#fff;opacity:0.7000000000000001"></path></g><path d="M281.19,78.83v0a1.68,1.68,0,0,0-.84-.88h0a1.5,1.5,0,0,0-.56-.15c-2.26-.16-3.39-.23-5.65-.36a1.42,1.42,0,0,0-1.54,1.41,1.63,1.63,0,0,0,1.54,1.59l1.93.11q-16.44,15.15-32.4,30.75a419.61,419.61,0,0,0-46.58,3.28,1.78,1.78,0,0,0-1.08.58q-11.29,12.63-22.36,25.43-11-8.79-22.19-17.23a1.62,1.62,0,0,0-2.14.52q-11.47,14.24-22.56,28.77c-8.9,2.72-13.33,4.21-22.1,7.43a2.09,2.09,0,0,0-.66.4C88.63,174,74,188.15,59.7,202.74a2.16,2.16,0,0,0-.64,2.33c.25.4.75.45,1.27.19a2.2,2.2,0,0,0,.63-.47c14.23-14.44,28.77-28.5,44-41.86,8.88-3.25,13.36-4.75,22.36-7.49a2.17,2.17,0,0,0,1.06-.75q10.8-14.1,22-27.91,11.22,8.4,22.18,17.18a1.62,1.62,0,0,0,2.16-.4q11.38-13.16,23-26.08a419.52,419.52,0,0,1,46.58-3.21,1.59,1.59,0,0,0,1.09-.46q16.22-15.75,32.85-31v1.88a1.66,1.66,0,0,0,1.54,1.61,1.4,1.4,0,0,0,1.54-1.39v-5.5A1.55,1.55,0,0,0,281.19,78.83Z" style="fill:none;stroke:#263238;stroke-miterlimit:10"></path><path d="M107.8,160.41a5.06,5.06,0,0,1-3.17,4.38c-1.75.64-3.16-.27-3.16-2.06a5.08,5.08,0,0,1,3.16-4.4C106.38,157.69,107.8,158.62,107.8,160.41Z" style="fill:#3C1054"></path><g style="clip-path:url(#freepik--clip-path-7--inject-56)"><path d="M107.8,160.41a5.06,5.06,0,0,1-3.17,4.38c-1.75.64-3.16-.27-3.16-2.06a5.08,5.08,0,0,1,3.16-4.4C106.38,157.69,107.8,158.62,107.8,160.41Z" style="fill:#fff;stroke:#263238;stroke-linecap:round;stroke-linejoin:round;stroke-width:0.75px;opacity:0.7000000000000001"></path></g><path d="M107.8,160.41a5.06,5.06,0,0,1-3.17,4.38c-1.75.64-3.16-.27-3.16-2.06a5.08,5.08,0,0,1,3.16-4.4C106.38,157.69,107.8,158.62,107.8,160.41Z" style="fill:none;stroke:#263238;stroke-linecap:round;stroke-linejoin:round;stroke-width:0.75px"></path><path d="M130.56,153a4.7,4.7,0,0,1-3.22,4.2,2.3,2.3,0,0,1-3.21-2.25,4.74,4.74,0,0,1,3.21-4.22A2.32,2.32,0,0,1,130.56,153Z" style="fill:#3C1054"></path><g style="clip-path:url(#freepik--clip-path-8--inject-56)"><path d="M130.56,153a4.7,4.7,0,0,1-3.22,4.2,2.3,2.3,0,0,1-3.21-2.25,4.74,4.74,0,0,1,3.21-4.22A2.32,2.32,0,0,1,130.56,153Z" style="fill:#fff;opacity:0.7000000000000001"></path></g><path d="M130.56,153a4.7,4.7,0,0,1-3.22,4.2,2.3,2.3,0,0,1-3.21-2.25,4.74,4.74,0,0,1,3.21-4.22A2.32,2.32,0,0,1,130.56,153Z" style="fill:none;stroke:#263238;stroke-linecap:round;stroke-linejoin:round;stroke-width:0.75px"></path><path d="M176.9,142.11a4.09,4.09,0,0,1-3.28,3.82,2.63,2.63,0,0,1-3.28-2.62,4.1,4.1,0,0,1,3.28-3.84A2.64,2.64,0,0,1,176.9,142.11Z" style="fill:#3C1054"></path><g style="clip-path:url(#freepik--clip-path-9--inject-56)"><path d="M176.9,142.11a4.09,4.09,0,0,1-3.28,3.82,2.63,2.63,0,0,1-3.28-2.62,4.1,4.1,0,0,1,3.28-3.84A2.64,2.64,0,0,1,176.9,142.11Z" style="fill:#fff;opacity:0.7000000000000001"></path></g><path d="M176.9,142.11a4.09,4.09,0,0,1-3.28,3.82,2.63,2.63,0,0,1-3.28-2.62,4.1,4.1,0,0,1,3.28-3.84A2.64,2.64,0,0,1,176.9,142.11Z" style="fill:none;stroke:#263238;stroke-linecap:round;stroke-linejoin:round;stroke-width:0.75px"></path><path d="M200.37,115.66a3.81,3.81,0,0,1-3.31,3.63,2.81,2.81,0,0,1-3.3-2.8,3.84,3.84,0,0,1,3.3-3.66A2.83,2.83,0,0,1,200.37,115.66Z" style="fill:#3C1054"></path><g style="clip-path:url(#freepik--clip-path-10--inject-56)"><path d="M200.37,115.66a3.81,3.81,0,0,1-3.31,3.63,2.81,2.81,0,0,1-3.3-2.8,3.84,3.84,0,0,1,3.3-3.66A2.83,2.83,0,0,1,200.37,115.66Z" style="fill:#fff;stroke:#263238;stroke-linecap:round;stroke-linejoin:round;stroke-width:0.75px;opacity:0.7000000000000001"></path></g><path d="M200.37,115.66a3.81,3.81,0,0,1-3.31,3.63,2.81,2.81,0,0,1-3.3-2.8,3.84,3.84,0,0,1,3.3-3.66A2.83,2.83,0,0,1,200.37,115.66Z" style="fill:none;stroke:#263238;stroke-linecap:round;stroke-linejoin:round;stroke-width:0.75px"></path><path d="M224,113.53a3.56,3.56,0,0,1-3.32,3.45,3,3,0,0,1-3.32-3,3.58,3.58,0,0,1,3.32-3.48A3,3,0,0,1,224,113.53Z" style="fill:#3C1054"></path><g style="clip-path:url(#freepik--clip-path-11--inject-56)"><path d="M224,113.53a3.56,3.56,0,0,1-3.32,3.45,3,3,0,0,1-3.32-3,3.58,3.58,0,0,1,3.32-3.48A3,3,0,0,1,224,113.53Z" style="fill:#fff;opacity:0.7000000000000001"></path></g><path d="M224,113.53a3.56,3.56,0,0,1-3.32,3.45,3,3,0,0,1-3.32-3,3.58,3.58,0,0,1,3.32-3.48A3,3,0,0,1,224,113.53Z" style="fill:none;stroke:#263238;stroke-linecap:round;stroke-linejoin:round;stroke-width:0.75px"></path><path d="M247.61,112.74a3.33,3.33,0,0,1-3.33,3.26,3.22,3.22,0,0,1-3.32-3.17,3.34,3.34,0,0,1,3.32-3.29A3.23,3.23,0,0,1,247.61,112.74Z" style="fill:#3C1054"></path><g style="clip-path:url(#freepik--clip-path-12--inject-56)"><path d="M247.61,112.74a3.33,3.33,0,0,1-3.33,3.26,3.22,3.22,0,0,1-3.32-3.17,3.34,3.34,0,0,1,3.32-3.29A3.23,3.23,0,0,1,247.61,112.74Z" style="fill:#fff;opacity:0.7000000000000001"></path></g><path d="M247.61,112.74a3.33,3.33,0,0,1-3.33,3.26,3.22,3.22,0,0,1-3.32-3.17,3.34,3.34,0,0,1,3.32-3.29A3.23,3.23,0,0,1,247.61,112.74Z" style="fill:none;stroke:#263238;stroke-linecap:round;stroke-linejoin:round;stroke-width:0.75px"></path><path d="M271.26,90.26a3.1,3.1,0,0,1-3.32,3.08A3.44,3.44,0,0,1,264.62,90a3.13,3.13,0,0,1,3.32-3.1A3.46,3.46,0,0,1,271.26,90.26Z" style="fill:#3C1054"></path><g style="clip-path:url(#freepik--clip-path-13--inject-56)"><path d="M271.26,90.26a3.1,3.1,0,0,1-3.32,3.08A3.44,3.44,0,0,1,264.62,90a3.13,3.13,0,0,1,3.32-3.1A3.46,3.46,0,0,1,271.26,90.26Z" style="fill:#fff;opacity:0.7000000000000001"></path></g><path d="M271.26,90.26a3.1,3.1,0,0,1-3.32,3.08A3.44,3.44,0,0,1,264.62,90a3.13,3.13,0,0,1,3.32-3.1A3.46,3.46,0,0,1,271.26,90.26Z" style="fill:none;stroke:#263238;stroke-linecap:round;stroke-linejoin:round;stroke-width:0.75px"></path><path d="M153.61,123.88a4.38,4.38,0,0,1-3.25,4,2.46,2.46,0,0,1-3.25-2.43,4.39,4.39,0,0,1,3.25-4A2.47,2.47,0,0,1,153.61,123.88Z" style="fill:#3C1054"></path><g style="clip-path:url(#freepik--clip-path-14--inject-56)"><path d="M153.61,123.88a4.38,4.38,0,0,1-3.25,4,2.46,2.46,0,0,1-3.25-2.43,4.39,4.39,0,0,1,3.25-4A2.47,2.47,0,0,1,153.61,123.88Z" style="fill:#fff;opacity:0.7000000000000001"></path></g><path d="M153.61,123.88a4.38,4.38,0,0,1-3.25,4,2.46,2.46,0,0,1-3.25-2.43,4.39,4.39,0,0,1,3.25-4A2.47,2.47,0,0,1,153.61,123.88Z" style="fill:none;stroke:#263238;stroke-linecap:round;stroke-linejoin:round;stroke-width:0.75px"></path><path d="M281.19,55.83v0a1.68,1.68,0,0,0-.84-.88h0a1.5,1.5,0,0,0-.56-.15c-2.26-.16-3.39-.23-5.65-.36a1.42,1.42,0,0,0-1.54,1.41,1.63,1.63,0,0,0,1.54,1.59l1.93.11c-3.49,3.19-5.24,4.8-8.74,8-9.2-.37-13.81-.44-23-.31a1.58,1.58,0,0,0-1.09.45Q231.48,77.41,220,89.3c-9.19.65-13.78,1.1-22.94,2.26a1.78,1.78,0,0,0-1.08.58q-11.29,12.63-22.36,25.43-11-8.79-22.19-17.23a1.62,1.62,0,0,0-2.14.52q-11.47,14.24-22.56,28.77c-8.9,2.72-13.33,4.21-22.1,7.43a2.32,2.32,0,0,0-1,.82q-22.91,32.18-44.26,65.33c-.55.86-.55,1.81,0,2.12a1.09,1.09,0,0,0,1-.07,2.68,2.68,0,0,0,1-.94q21.24-32.76,43.91-64.49c8.78-3.2,13.2-4.68,22.1-7.39a2.17,2.17,0,0,0,1.06-.75q10.8-14.1,22-27.91,11.22,8.4,22.18,17.18a1.62,1.62,0,0,0,2.16-.4q11.38-13.15,23-26.08c9.15-1.14,13.75-1.59,22.94-2.23a1.69,1.69,0,0,0,1.09-.51q11.49-11.85,23.19-23.48c9.21-.11,13.82,0,23,.35a1.48,1.48,0,0,0,1.09-.39c3.68-3.41,5.51-5.1,9.19-8.43v1.88a1.66,1.66,0,0,0,1.54,1.61,1.4,1.4,0,0,0,1.54-1.39v-5.5A1.55,1.55,0,0,0,281.19,55.83Z" style="fill:#3C1054;stroke:#263238;stroke-miterlimit:10"></path><path d="M85.39,169.16a5.46,5.46,0,0,1-3.12,4.57c-1.72.74-3.11-.09-3.11-1.87a5.47,5.47,0,0,1,3.11-4.59C84,166.52,85.39,167.38,85.39,169.16Z" style="fill:#3C1054;stroke:#263238;stroke-linecap:round;stroke-linejoin:round;stroke-width:0.75px"></path><path d="M107.8,137.41a5.06,5.06,0,0,1-3.17,4.38c-1.75.64-3.16-.27-3.16-2.06a5.08,5.08,0,0,1,3.16-4.4C106.38,134.69,107.8,135.62,107.8,137.41Z" style="fill:#3C1054;stroke:#263238;stroke-linecap:round;stroke-linejoin:round;stroke-width:0.75px"></path><path d="M153.61,100.88a4.38,4.38,0,0,1-3.25,4,2.46,2.46,0,0,1-3.25-2.43,4.39,4.39,0,0,1,3.25-4A2.47,2.47,0,0,1,153.61,100.88Z" style="fill:#3C1054;stroke:#263238;stroke-linecap:round;stroke-linejoin:round;stroke-width:0.75px"></path><path d="M176.9,119.11a4.09,4.09,0,0,1-3.28,3.82,2.63,2.63,0,0,1-3.28-2.62,4.1,4.1,0,0,1,3.28-3.84A2.64,2.64,0,0,1,176.9,119.11Z" style="fill:#3C1054;stroke:#263238;stroke-linecap:round;stroke-linejoin:round;stroke-width:0.75px"></path><path d="M200.37,92.66a3.81,3.81,0,0,1-3.31,3.63,2.81,2.81,0,0,1-3.3-2.8,3.84,3.84,0,0,1,3.3-3.66A2.83,2.83,0,0,1,200.37,92.66Z" style="fill:#3C1054;stroke:#263238;stroke-linecap:round;stroke-linejoin:round;stroke-width:0.75px"></path><path d="M224,90.53A3.56,3.56,0,0,1,220.64,94a3,3,0,0,1-3.32-3,3.58,3.58,0,0,1,3.32-3.48A3,3,0,0,1,224,90.53Z" style="fill:#3C1054;stroke:#263238;stroke-linecap:round;stroke-linejoin:round;stroke-width:0.75px"></path><path d="M247.61,66.74A3.33,3.33,0,0,1,244.28,70,3.22,3.22,0,0,1,241,66.83a3.34,3.34,0,0,1,3.32-3.29A3.23,3.23,0,0,1,247.61,66.74Z" style="fill:#3C1054;stroke:#263238;stroke-linecap:round;stroke-linejoin:round;stroke-width:0.75px"></path><path d="M271.26,67.26a3.1,3.1,0,0,1-3.32,3.08A3.44,3.44,0,0,1,264.62,67a3.13,3.13,0,0,1,3.32-3.1A3.46,3.46,0,0,1,271.26,67.26Z" style="fill:#3C1054;stroke:#263238;stroke-linecap:round;stroke-linejoin:round;stroke-width:0.75px"></path><path d="M291.56,162.28c-80.74-6.71-158.29,7.73-231.23,43-.78.4-1.42.05-1.42-.78v-115a2.77,2.77,0,0,1,1.42-2.22c72.94-35.25,150.49-49.69,231.23-43a1.71,1.71,0,0,1,1.53,1.65v115A1.35,1.35,0,0,1,291.56,162.28ZM61.75,201.55C133.82,167,210.35,152.79,290,159.13v-112C210.35,40.79,133.82,55,61.75,89.55Z" style="fill:#3C1054;stroke:#263238;stroke-miterlimit:10"></path></g></svg>